<svg xmlns="http://www.w3.org/2000/svg" width="190.553" height="28.644" viewBox="0 0 190.553 28.644">
  <g id="Camada_x0020_1" transform="translate(-750.807 -4387.313)">
    <path id="necessial" d="M4.331-15.292V-2.169H2.783V-19.059H4.331v1.084a6.773,6.773,0,0,1,4.919-2.1A6.585,6.585,0,0,1,14.117-18.2a6.59,6.59,0,0,1,1.926,4.73v11.3H14.5V-13.331A4.949,4.949,0,0,0,12.939-17,5.1,5.1,0,0,0,9.25-18.525a5.114,5.114,0,0,0-3.681,1.5A5.809,5.809,0,0,0,4.331-15.292ZM24.419-5.334a7.441,7.441,0,0,0,5.194,2,7.523,7.523,0,0,0,5.521-2.287q.292-.292.55-.6l1.634.585A9.763,9.763,0,0,1,36.3-4.457a9.115,9.115,0,0,1-6.69,2.769A9.1,9.1,0,0,1,22.94-4.457a9.115,9.115,0,0,1-2.769-6.69A9.1,9.1,0,0,1,22.94-17.82a9.1,9.1,0,0,1,6.673-2.769,9.1,9.1,0,0,1,5.865,2.012q.413.344.826.757.155.155.292.31l-1.17,1.17ZM34.291-17.39a7.457,7.457,0,0,0-4.678-1.548,7.517,7.517,0,0,0-5.5,2.279,7.5,7.5,0,0,0-2.287,5.512A7.457,7.457,0,0,0,23.37-6.469ZM55.928-6.228l1.634.585a9.763,9.763,0,0,1-1.015,1.187,9.115,9.115,0,0,1-6.69,2.769,9.1,9.1,0,0,1-6.673-2.769,9.115,9.115,0,0,1-2.769-6.69,9.1,9.1,0,0,1,2.769-6.673,9.1,9.1,0,0,1,6.673-2.769,9.115,9.115,0,0,1,6.69,2.769,10.574,10.574,0,0,1,1.015,1.17l-1.634.6q-.258-.31-.55-.619a7.552,7.552,0,0,0-5.521-2.27,7.517,7.517,0,0,0-5.5,2.279,7.5,7.5,0,0,0-2.287,5.512,7.523,7.523,0,0,0,2.287,5.521,7.5,7.5,0,0,0,5.5,2.287,7.523,7.523,0,0,0,5.521-2.287Q55.67-5.919,55.928-6.228Zm8.978.894a7.441,7.441,0,0,0,5.194,2A7.523,7.523,0,0,0,75.62-5.626q.292-.292.55-.6l1.634.585A9.763,9.763,0,0,1,76.79-4.457,9.115,9.115,0,0,1,70.1-1.688a9.1,9.1,0,0,1-6.673-2.769,9.115,9.115,0,0,1-2.769-6.69,9.1,9.1,0,0,1,2.769-6.673A9.1,9.1,0,0,1,70.1-20.589a9.1,9.1,0,0,1,5.865,2.012q.413.344.826.757.155.155.292.31l-1.17,1.17ZM74.778-17.39A7.457,7.457,0,0,0,70.1-18.938a7.517,7.517,0,0,0-5.5,2.279,7.5,7.5,0,0,0-2.287,5.512,7.457,7.457,0,0,0,1.548,4.678Zm11.8,6.536a12.5,12.5,0,0,1-2.735-1.823,3.892,3.892,0,0,1-1.187-2.855,3.941,3.941,0,0,1,1.187-2.881,3.878,3.878,0,0,1,2.855-1.2,3.776,3.776,0,0,1,2.786,1.1,3.417,3.417,0,0,1,1.066,2.459v.086l-1.342.533a3.334,3.334,0,0,0-.817-1.961,2.274,2.274,0,0,0-1.694-.654,2.431,2.431,0,0,0-1.771.731,2.408,2.408,0,0,0-.74,1.78,2.417,2.417,0,0,0,.74,1.771,12.06,12.06,0,0,0,1.823,1.307,14.355,14.355,0,0,1,3.13,2.133A4.842,4.842,0,0,1,91.34-6.8a4.874,4.874,0,0,1-1.462,3.569,4.811,4.811,0,0,1-3.543,1.471,4.811,4.811,0,0,1-3.543-1.471A4.5,4.5,0,0,1,81.33-6.452l1.531-.4a3.416,3.416,0,0,0,1.023,2.528A3.358,3.358,0,0,0,86.335-3.3a3.358,3.358,0,0,0,2.451-1.015A3.355,3.355,0,0,0,89.809-6.8a3.329,3.329,0,0,0-1.015-2.442A14.89,14.89,0,0,0,86.576-10.855Zm13.793,0a12.5,12.5,0,0,1-2.735-1.823,3.892,3.892,0,0,1-1.187-2.855,3.941,3.941,0,0,1,1.187-2.881,3.878,3.878,0,0,1,2.855-1.2,3.776,3.776,0,0,1,2.786,1.1,3.417,3.417,0,0,1,1.066,2.459v.086L103-15.43a3.334,3.334,0,0,0-.817-1.961,2.274,2.274,0,0,0-1.694-.654,2.431,2.431,0,0,0-1.771.731,2.408,2.408,0,0,0-.74,1.78,2.417,2.417,0,0,0,.74,1.771,12.06,12.06,0,0,0,1.823,1.307,14.355,14.355,0,0,1,3.13,2.133A4.842,4.842,0,0,1,105.133-6.8a4.874,4.874,0,0,1-1.462,3.569,4.811,4.811,0,0,1-3.543,1.471,4.811,4.811,0,0,1-3.543-1.471,4.5,4.5,0,0,1-1.462-3.225l1.531-.4a3.416,3.416,0,0,0,1.023,2.528A3.358,3.358,0,0,0,100.129-3.3a3.358,3.358,0,0,0,2.451-1.015A3.355,3.355,0,0,0,103.6-6.8a3.329,3.329,0,0,0-1.015-2.442A14.89,14.89,0,0,0,100.369-10.855Zm11.042-8.2V-2.169h-1.548V-19.059Zm-.774-5.985a1.5,1.5,0,0,1,1.092.447,1.462,1.462,0,0,1,.456,1.084,1.482,1.482,0,0,1-.456,1.1,1.5,1.5,0,0,1-1.092.447,1.5,1.5,0,0,1-1.092-.447,1.482,1.482,0,0,1-.456-1.1,1.462,1.462,0,0,1,.456-1.084A1.5,1.5,0,0,1,110.637-25.044ZM135.145-2.169H133.6v-3.44a11.579,11.579,0,0,1-.98,1.152,9.115,9.115,0,0,1-6.69,2.769,9.1,9.1,0,0,1-6.673-2.769,9.1,9.1,0,0,1-2.769-6.673,9.115,9.115,0,0,1,2.769-6.69,9.1,9.1,0,0,1,6.673-2.769,9.115,9.115,0,0,1,6.69,2.769,11.579,11.579,0,0,1,.98,1.152v-2.391h1.548ZM133.6-9.6v-3.061a7.528,7.528,0,0,0-2.15-3.99,7.523,7.523,0,0,0-5.521-2.287,7.523,7.523,0,0,0-5.521,2.287,7.523,7.523,0,0,0-2.287,5.521,7.5,7.5,0,0,0,2.287,5.512,7.537,7.537,0,0,0,5.521,2.279,7.523,7.523,0,0,0,5.521-2.287A7.522,7.522,0,0,0,133.6-9.6Zm8.255-20.088V-2.169h-1.548V-29.687Z" transform="translate(769.142 4417)" fill="#576d6e"/>
    <circle id="Ellipse_14" data-name="Ellipse 14" cx="6.488" cy="6.488" r="6.488" transform="translate(750.807 4400)" fill="#576d6e"/>
    <path id="Path_93" data-name="Path 93" d="M0,0H13.423" transform="translate(758.782 4407.174)" fill="none" stroke="#576d6e" stroke-width="2"/>
    <path id="Path_91" data-name="Path 91" d="M8439.7,4842.244c1.205-2.152,2.436-3.245,4.85-3.245a4.615,4.615,0,0,1,4.848,4.329c0,4.329-4.848,8.681-9.7,13.009-4.849-4.328-9.7-8.681-9.7-13.009a4.616,4.616,0,0,1,4.849-4.329C8437.285,4839,8438.491,4840.089,8439.7,4842.244Z" transform="translate(-7508.035 -440.382)" fill="#576d6e"/>
    <path id="Path_92" data-name="Path 92" d="M0,0H21.672" transform="translate(910.12 4407.174)" fill="none" stroke="#576d6e" stroke-width="2"/>
  </g>
</svg>
